<svg width="48" height="48" xmlns="http://www.w3.org/2000/svg" xmlns:xlink="http://www.w3.org/1999/xlink" xml:space="preserve" overflow="hidden"><g transform="translate(-865 -367)"><path d="M885.25 403.375 901 403.375 901 401.375 885.25 401.375 885.25 403.375ZM885.25 391.125 901 391.125 901 389.125 885.25 389.125 885.25 391.125ZM885.25 378.875 901 378.875 901 376.875 885.25 376.875 885.25 378.875ZM878.375 404 881.625 404 881.625 400.75 878.375 400.75 878.375 404ZM877.375 406 882.625 406C883.178 406 883.625 405.553 883.625 405L883.625 399.75C883.625 399.198 883.178 398.75 882.625 398.75L877.375 398.75C876.822 398.75 876.375 399.198 876.375 399.75L876.375 405C876.375 405.553 876.822 406 877.375 406L877.375 406ZM878.375 391.75 881.625 391.75 881.625 388.5 878.375 388.5 878.375 391.75ZM877.375 393.75 882.625 393.75C883.178 393.75 883.625 393.303 883.625 392.75L883.625 387.5C883.625 386.948 883.178 386.5 882.625 386.5L877.375 386.5C876.822 386.5 876.375 386.948 876.375 387.5L876.375 392.75C876.375 393.303 876.822 393.75 877.375 393.75L877.375 393.75ZM878.375 379.5 881.625 379.5 881.625 376.25 878.375 376.25 878.375 379.5ZM877.375 381.5 882.625 381.5C883.178 381.5 883.625 381.053 883.625 380.5L883.625 375.25C883.625 374.698 883.178 374.25 882.625 374.25L877.375 374.25C876.822 374.25 876.375 374.698 876.375 375.25L876.375 380.5C876.375 381.053 876.822 381.5 877.375 381.5L877.375 381.5ZM874 411 903.5 411 903.5 371 874 371 874 411ZM904.5 369 873 369C872.447 369 872 369.448 872 370L872 412C872 412.553 872.447 413 873 413L904.5 413C905.053 413 905.5 412.553 905.5 412L905.5 370C905.5 369.448 905.053 369 904.5 369L904.5 369Z" fill="#ED7100" fill-rule="evenodd"/></g></svg>