<svg width="48" height="48" xmlns="http://www.w3.org/2000/svg" xmlns:xlink="http://www.w3.org/1999/xlink" xml:space="preserve" overflow="hidden"><g transform="translate(-751 -284)"><path d="M789.725 317.735 791.725 317.735 791.725 298.497 789.725 298.497 789.725 317.735ZM784.479 317.735 786.479 317.735 786.479 298.497 784.479 298.497 784.479 317.735ZM779.232 317.735 781.232 317.735 781.232 298.497 779.232 298.497 779.232 317.735ZM773.986 317.735 775.986 317.735 775.986 298.497 773.986 298.497 773.986 317.735ZM768.739 317.735 770.739 317.735 770.739 298.497 768.739 298.497 768.739 317.735ZM763.493 317.735 765.493 317.735 765.493 298.497 763.493 298.497 763.493 317.735ZM758.246 317.735 760.246 317.735 760.246 298.497 758.246 298.497 758.246 317.735ZM754.999 320.232 794.972 320.232 794.972 296 754.999 296 754.999 320.232ZM795.972 293.999 754 293.999C753.447 293.999 753 294.447 753 294.999L753 321.232C753 321.784 753.447 322.232 754 322.232L795.972 322.232C796.525 322.232 796.972 321.784 796.972 321.232L796.972 294.999C796.972 294.447 796.525 293.999 795.972 293.999L795.972 293.999Z" fill="#ED7100" fill-rule="evenodd"/></g></svg>