<svg width="80" height="80" xmlns="http://www.w3.org/2000/svg" xmlns:xlink="http://www.w3.org/1999/xlink" xml:space="preserve" overflow="hidden"><g transform="translate(-552 -124)"><path d="M552 124 632 124 632 204 552 204Z" fill="#ED7100" fill-rule="evenodd"/><path d="M590.788 161.578C590.293 161.866 589.986 162.4 589.986 162.974L589.986 190.719 568.999 178.984 568.999 151.708 592.557 138.059 613.485 148.428 590.788 161.578ZM615.92 148.402C615.92 147.828 615.614 147.292 615.06 146.975L593.346 136.215C592.851 135.929 592.235 135.928 591.74 136.216L567.802 150.084C567.308 150.372 567 150.906 567 151.48L567 179.216C567 179.79 567.308 180.324 567.818 180.62L589.574 192.785C589.822 192.929 590.101 193 590.378 193 590.655 193 590.934 192.929 591.181 192.785 591.677 192.499 591.984 191.964 591.984 191.389L591.984 163.201 615.118 149.798C615.614 149.511 615.92 148.977 615.92 148.402L615.92 148.402ZM615.969 179.047 596.981 190.661 596.981 180.262 606.882 173.873 606.95 173.424C606.968 173.307 606.975 173.307 606.975 172.766L607.006 160.36 616 155.148 615.969 179.047ZM617.197 153.072C616.7 152.782 616.084 152.783 615.589 153.072L606.013 158.618C605.714 158.782 605.008 159.166 605.008 159.958L604.976 172.717 595.851 178.606C595.306 178.931 594.982 179.445 594.982 179.989L594.982 191.308C594.982 191.875 595.287 192.391 595.798 192.687 596.065 192.84 596.362 192.919 596.657 192.919 596.948 192.919 597.239 192.845 597.502 192.692L617.167 180.664C617.662 180.376 617.968 179.842 617.968 179.271L618 154.466C618 153.893 617.692 153.358 617.197 153.072L617.197 153.072Z" fill="#FFFFFF" fill-rule="evenodd"/></g></svg>