<svg width="48" height="48" xmlns="http://www.w3.org/2000/svg" xmlns:xlink="http://www.w3.org/1999/xlink" xml:space="preserve" overflow="hidden"><g transform="translate(-568 -285)"><path d="M603.207 322.954 605.207 322.954 605.207 319.459 603.207 319.459 603.207 322.954ZM599.711 322.954 601.711 322.954 601.711 319.459 599.711 319.459 599.711 322.954ZM596.216 322.954 598.216 322.954 598.216 319.459 596.216 319.459 596.216 322.954ZM594.721 324.576 606.702 324.576 606.702 317.837 594.721 317.837 594.721 324.576ZM607.702 315.837 593.72 315.837C593.168 315.837 592.72 316.284 592.72 316.837L592.72 325.576C592.72 326.129 593.168 326.576 593.72 326.576L607.702 326.576C608.255 326.576 608.702 326.129 608.702 325.576L608.702 316.837C608.702 316.284 608.255 315.837 607.702 315.837L607.702 315.837ZM603.207 310.721 605.207 310.721 605.207 307.225 603.207 307.225 603.207 310.721ZM599.711 310.721 601.711 310.721 601.711 307.225 599.711 307.225 599.711 310.721ZM596.216 310.721 598.216 310.721 598.216 307.225 596.216 307.225 596.216 310.721ZM594.721 312.342 606.702 312.342 606.702 305.604 594.721 305.604 594.721 312.342ZM607.702 303.604 593.72 303.604C593.168 303.604 592.72 304.051 592.72 304.604L592.72 313.342C592.72 313.895 593.168 314.342 593.72 314.342L607.702 314.342C608.255 314.342 608.702 313.895 608.702 313.342L608.702 304.604C608.702 304.051 608.255 303.604 607.702 303.604L607.702 303.604ZM603.207 298.486 605.207 298.486 605.207 294.991 603.207 294.991 603.207 298.486ZM599.711 298.486 601.711 298.486 601.711 294.991 599.711 294.991 599.711 298.486ZM596.216 298.486 598.216 298.486 598.216 294.991 596.216 294.991 596.216 298.486ZM594.721 300.108 606.702 300.108 606.702 293.369 594.721 293.369 594.721 300.108ZM607.702 291.369 593.72 291.369C593.168 291.369 592.72 291.817 592.72 292.369L592.72 301.108C592.72 301.661 593.168 302.108 593.72 302.108L607.702 302.108C608.255 302.108 608.702 301.661 608.702 301.108L608.702 292.369C608.702 291.817 608.255 291.369 607.702 291.369L607.702 291.369ZM585.729 322.954 587.729 322.954 587.729 319.459 585.729 319.459 585.729 322.954ZM582.234 322.954 584.234 322.954 584.234 319.459 582.234 319.459 582.234 322.954ZM578.738 322.954 580.738 322.954 580.738 319.459 578.738 319.459 578.738 322.954ZM577.243 324.576 589.224 324.576 589.224 317.837 577.243 317.837 577.243 324.576ZM590.224 315.837 576.243 315.837C575.69 315.837 575.243 316.284 575.243 316.837L575.243 325.576C575.243 326.129 575.69 326.576 576.243 326.576L590.224 326.576C590.777 326.576 591.224 326.129 591.224 325.576L591.224 316.837C591.224 316.284 590.777 315.837 590.224 315.837L590.224 315.837ZM585.729 310.721 587.729 310.721 587.729 307.225 585.729 307.225 585.729 310.721ZM582.234 310.721 584.234 310.721 584.234 307.225 582.234 307.225 582.234 310.721ZM578.738 310.721 580.738 310.721 580.738 307.225 578.738 307.225 578.738 310.721ZM577.243 312.342 589.224 312.342 589.224 305.604 577.243 305.604 577.243 312.342ZM590.224 303.604 576.243 303.604C575.69 303.604 575.243 304.051 575.243 304.604L575.243 313.342C575.243 313.895 575.69 314.342 576.243 314.342L590.224 314.342C590.777 314.342 591.224 313.895 591.224 313.342L591.224 304.604C591.224 304.051 590.777 303.604 590.224 303.604L590.224 303.604ZM585.729 298.486 587.729 298.486 587.729 294.991 585.729 294.991 585.729 298.486ZM582.234 298.486 584.234 298.486 584.234 294.991 582.234 294.991 582.234 298.486ZM578.738 298.486 580.738 298.486 580.738 294.991 578.738 294.991 578.738 298.486ZM577.243 300.108 589.224 300.108 589.224 293.369 577.243 293.369 577.243 300.108ZM590.224 291.369 576.243 291.369C575.69 291.369 575.243 291.817 575.243 292.369L575.243 301.108C575.243 301.661 575.69 302.108 576.243 302.108L590.224 302.108C590.777 302.108 591.224 301.661 591.224 301.108L591.224 292.369C591.224 291.817 590.777 291.369 590.224 291.369L590.224 291.369ZM611.945 324.497C611.945 326.95 609.95 328.945 607.497 328.945L576.448 328.945C573.995 328.945 572 326.95 572 324.497L572 293.448C572 290.995 573.995 289 576.448 289L607.497 289C609.95 289 611.945 290.995 611.945 293.448L611.945 324.497ZM607.497 287 576.448 287C572.892 287 570 289.893 570 293.448L570 324.497C570 328.053 572.892 330.945 576.448 330.945L607.497 330.945C611.053 330.945 613.945 328.053 613.945 324.497L613.945 293.448C613.945 289.893 611.053 287 607.497 287L607.497 287Z" fill="#ED7100" fill-rule="evenodd"/></g></svg>