<svg width="80" height="80" xmlns="http://www.w3.org/2000/svg" xmlns:xlink="http://www.w3.org/1999/xlink" xml:space="preserve" overflow="hidden"><g transform="translate(-791 -124)"><path d="M791 124 871 124 871 204 791 204Z" fill="#ED7100" fill-rule="evenodd"/><path d="M855 172.234 847 167.433 847 156C847 155.644 846.812 155.315 846.504 155.136L835 148.426 835 138.752 855 150.571 855 172.234ZM856.509 149.139 834.509 136.139C834.199 135.956 833.818 135.954 833.504 136.131 833.193 136.309 833 136.641 833 137L833 149C833 149.355 833.189 149.684 833.496 149.864L845 156.574 845 168C845 168.351 845.185 168.677 845.486 168.857L855.486 174.857C855.644 174.952 855.822 175 856 175 856.17 175 856.34 174.957 856.493 174.87 856.807 174.693 857 174.36 857 174L857 150C857 149.646 856.814 149.319 856.509 149.139L856.509 149.139ZM831.445 190.863 808 178.399 808 150.571 828 138.752 828 148.451 817.463 155.156C817.175 155.34 817 155.658 817 156L817 173C817 173.373 817.208 173.715 817.538 173.887L830.991 180.887C831.28 181.037 831.624 181.038 831.912 180.888L844.964 174.144 852.996 178.964 831.445 190.863ZM855.515 178.142 845.515 172.142C845.217 171.964 844.849 171.952 844.541 172.112L831.455 178.873 819 172.393 819 156.549 829.537 149.844C829.825 149.66 830 149.342 830 149L830 137C830 136.641 829.808 136.309 829.496 136.131 829.184 135.954 828.802 135.956 828.491 136.139L806.491 149.139C806.187 149.319 806 149.646 806 150L806 179C806 179.369 806.204 179.709 806.53 179.883L830.984 192.883C831.131 192.961 831.292 193 831.453 193 831.62 193 831.786 192.958 831.937 192.875L855.484 179.875C855.797 179.702 855.993 179.375 856 179.018 856.006 178.66 855.821 178.326 855.515 178.142L855.515 178.142Z" fill="#FFFFFF" fill-rule="evenodd"/></g></svg>