<svg width="48" height="48" xmlns="http://www.w3.org/2000/svg" xmlns:xlink="http://www.w3.org/1999/xlink" xml:space="preserve" overflow="hidden"><g transform="translate(-752 -455)"><path d="M776.933 493.213 789.674 493.213 789.674 491.213 776.933 491.213 776.933 493.213ZM776.933 483.303 789.674 483.303 789.674 481.303 776.933 481.303 776.933 483.303ZM776.933 473.393 789.674 473.393 789.674 471.393 776.933 471.393 776.933 473.393ZM771.561 493.337 773.808 493.337 773.808 491.09 771.561 491.09 771.561 493.337ZM770.561 495.337 774.808 495.337C775.361 495.337 775.808 494.89 775.808 494.337L775.808 490.09C775.808 489.537 775.361 489.09 774.808 489.09L770.561 489.09C770.009 489.09 769.561 489.537 769.561 490.09L769.561 494.337C769.561 494.89 770.009 495.337 770.561 495.337L770.561 495.337ZM771.561 483.427 773.808 483.427 773.808 481.18 771.561 481.18 771.561 483.427ZM770.561 485.427 774.808 485.427C775.361 485.427 775.808 484.98 775.808 484.427L775.808 480.18C775.808 479.627 775.361 479.18 774.808 479.18L770.561 479.18C770.009 479.18 769.561 479.627 769.561 480.18L769.561 484.427C769.561 484.98 770.009 485.427 770.561 485.427L770.561 485.427ZM771.561 473.517 773.808 473.517 773.808 471.27 771.561 471.27 771.561 473.517ZM770.561 475.517 774.808 475.517C775.361 475.517 775.808 475.07 775.808 474.517L775.808 470.27C775.808 469.717 775.361 469.27 774.808 469.27L770.561 469.27C770.009 469.27 769.561 469.717 769.561 470.27L769.561 474.517C769.561 475.07 770.009 475.517 770.561 475.517L770.561 475.517ZM768.023 499 791.506 499 791.506 467.022 768.023 467.022 768.023 499ZM766.022 466.023 766.022 494.753 763.775 494.753 763.775 462.776 787.259 462.776 787.259 465.023 767.022 465.023C766.469 465.023 766.022 465.47 766.022 466.023L766.022 466.023ZM761.775 461.776 761.775 490.978 760 490.978 760 459 783.483 459 783.483 460.776 762.775 460.776C762.222 460.776 761.775 461.223 761.775 461.776L761.775 461.776ZM792.506 465.023 789.259 465.023 789.259 461.776C789.259 461.223 788.811 460.776 788.259 460.776L785.483 460.776 785.483 458C785.483 457.448 785.036 457 784.483 457L759 457C758.447 457 758 457.448 758 458L758 491.978C758 492.531 758.447 492.978 759 492.978L761.775 492.978 761.775 495.753C761.775 496.306 762.222 496.753 762.775 496.753L766.022 496.753 766.022 500C766.022 500.553 766.469 501 767.022 501L792.506 501C793.058 501 793.506 500.553 793.506 500L793.506 466.023C793.506 465.47 793.058 465.023 792.506 465.023L792.506 465.023Z" fill="#ED7100" fill-rule="evenodd"/></g></svg>